<?xml version="1.0" encoding="UTF-8" standalone="no"?>
<svg
   xmlns:dc="http://purl.org/dc/elements/1.1/"
   xmlns:cc="http://creativecommons.org/ns#"
   xmlns:rdf="http://www.w3.org/1999/02/22-rdf-syntax-ns#"
   xmlns:svg="http://www.w3.org/2000/svg"
   xmlns="http://www.w3.org/2000/svg"
   xmlns:sodipodi="http://sodipodi.sourceforge.net/DTD/sodipodi-0.dtd"
   xmlns:inkscape="http://www.inkscape.org/namespaces/inkscape"
   sodipodi:docname="logo_dev.svg"
   inkscape:version="1.0 (6e3e5246a0, 2020-05-07)"
   id="svg8"
   version="1.1"
   viewBox="0 0 80.283002 30.52377"
   height="115.36543"
   width="303.43182">
  <defs
     id="defs2" />
  <sodipodi:namedview
     fit-margin-bottom="0"
     fit-margin-right="0"
     fit-margin-left="0"
     fit-margin-top="0"
     units="px"
     inkscape:snap-center="true"
     inkscape:snap-object-midpoints="true"
     inkscape:snap-smooth-nodes="true"
     inkscape:snap-midpoints="true"
     inkscape:snap-intersection-paths="true"
     inkscape:object-paths="true"
     inkscape:snap-bbox="true"
     inkscape:guide-bbox="true"
     showguides="true"
     inkscape:window-maximized="1"
     inkscape:window-y="27"
     inkscape:window-x="64"
     inkscape:window-height="1016"
     inkscape:window-width="1856"
     showgrid="false"
     inkscape:document-rotation="0"
     inkscape:current-layer="layer2"
     inkscape:document-units="mm"
     inkscape:cy="128.5459"
     inkscape:cx="-19.343258"
     inkscape:zoom="1.4142136"
     inkscape:pageshadow="2"
     inkscape:pageopacity="0.0"
     borderopacity="1.0"
     bordercolor="#666666"
     pagecolor="#ffffff"
     id="base">
    <sodipodi:guide
       id="guide882"
       orientation="1,0"
       position="-0.055140007,30.560307" />
    <sodipodi:guide
       id="guide924"
       orientation="0,-1"
       position="19.146992,16.436258" />
  </sodipodi:namedview>
  <metadata
     id="metadata5">
    <rdf:RDF>
      <cc:Work
         rdf:about="">
        <dc:format>image/svg+xml</dc:format>
        <dc:type
           rdf:resource="http://purl.org/dc/dcmitype/StillImage" />
        <dc:title></dc:title>
      </cc:Work>
    </rdf:RDF>
  </metadata>
  <g
     transform="translate(-61.845999,-54.265938)"
     inkscape:label="draw"
     id="layer2"
     inkscape:groupmode="layer">
    <path
       sodipodi:nodetypes="csccccccccscccccccccsc"
       transform="scale(0.26458333)"
       d="m 371.88281,258.34375 c -17.07983,10e-6 -30.92577,13.84595 -30.92578,30.92578 1e-5,17.07983 13.84595,30.92577 30.92578,30.92578 10.06338,-4.4e-4 19.49725,-4.89734 25.28907,-13.12695 5.79182,8.22961 15.22568,13.1265 25.28906,13.12695 3.03298,-7e-5 5.34786,0.68573 8.11993,-0.12948 -5.0346,-3.87772 -7.29381,-7.78655 -9.00801,-11.7015 -10.59506,-1.7e-4 -18.41417,-7.84173 -18.77208,-18.43074 v 0 c 0.005,-0.22132 0.008,-0.44269 0.008,-0.66406 -1e-5,-17.07983 -13.84595,-30.92577 -30.92578,-30.92578 z m 0,11.27344 c 10.85373,-1.1e-4 19.65245,8.79861 19.65235,19.65234 4e-4,5.00581 -1.90948,9.82311 -5.33985,13.46875 l -0.0508,0.0527 -13.48828,14.49023 v -8.375 c -0.25769,0.0103 -0.51555,0.0155 -0.77344,0.0156 -10.85373,1e-4 -19.65245,-8.79862 -19.65234,-19.65235 -1e-4,-10.85373 8.79861,-19.65244 19.65234,-19.65234 z"
       style="fill:#ffffff;fill-opacity:0.996613;stroke:none;stroke-width:3.02281;stroke-miterlimit:4;stroke-dasharray:none"
       id="path884" />
    <path
       sodipodi:nodetypes="sscccccsscccs"
       d="m 80.992987,68.353451 c -4.519038,2e-6 -8.182443,3.663407 -8.182446,8.182445 -3e-6,4.514808 3.656793,8.176459 8.171595,8.182449 v -2.982764 c -2.281422,-0.0048 -4.293216,-1.496283 -4.960937,-3.677812 h 13.011092 c 0.0951,-0.501713 0.143023,-1.011227 0.143144,-1.521873 -2e-6,-4.51904 -3.663407,-8.182445 -8.182448,-8.182445 z m -0.01447,2.982764 c 0.0048,-8e-6 0.0097,-8e-6 0.01447,0 2.285293,-3e-6 4.302707,1.492141 4.971791,3.677295 h -9.943579 c 0.667512,-2.18005 2.677377,-3.67095 4.957321,-3.677295 z"
       style="fill:#ffffff;fill-opacity:0.996613;stroke:none;stroke-width:0.799785;stroke-miterlimit:4;stroke-dasharray:none"
       id="circle911" />
    <g
       id="g960"
       transform="translate(13.381943)" />
    <g
       style="fill:#ffffff;fill-opacity:0.996613;stroke:none"
       id="g974"
       transform="translate(22.409928)">
      <path
         sodipodi:nodetypes="cscccscsccc"
         transform="matrix(0.26458333,0,0,0.26458333,-22.409928,0)"
         d="m 456.58203,258.34375 c -17.07983,10e-6 -30.92577,13.84595 -30.92578,30.92578 10e-6,17.07983 13.84595,30.92577 30.92578,30.92578 11.04896,2.4e-4 21.25872,-5.89421 26.7832,-15.46289 l -10.27734,-4.79687 c -3.62028,5.6026 -9.83536,8.98629 -16.50586,8.98633 -10.85373,1e-4 -19.65245,-8.79862 -19.65234,-19.65235 -10e-5,-10.85373 8.79861,-19.65244 19.65234,-19.65234 2.38321,0 4.74654,0.43348 6.97461,1.27929 l 3.97461,-10.55078 c -3.49862,-1.32403 -7.20844,-2.00233 -10.94922,-2.00195 z"
         style="fill:#ffffff;fill-opacity:0.996613;stroke:none;stroke-width:3.02281;stroke-miterlimit:4;stroke-dasharray:none"
         id="circle970" />
    </g>
    <g
       style="fill:#ffffff;fill-opacity:0.996613;stroke:none"
       id="g991"
       transform="translate(35.480772)">
      <path
         sodipodi:nodetypes="cscccccccccccscccsccccc"
         transform="matrix(0.26458333,0,0,0.26458333,-35.480772,0)"
         d="m 506.28125,223.0625 c -17.07983,1e-5 -30.92577,13.84595 -30.92578,30.92578 -5e-5,0.45003 0.01,0.90001 0.0293,1.34961 v 25.68945 c -0.005,0.1041 -0.002,0.20837 -0.006,0.3125 h 11.27734 c 0.53807,-10.37265 9.11842,-18.61728 19.625,-18.61718 10.50658,-1e-4 19.08697,8.24453 19.62504,18.61718 v 38.43221 h 11.27433 v -38.43221 c -0.54705,-16.59966 -14.16664,-29.89061 -30.89937,-29.89062 -6.9741,1.1e-4 -13.74342,2.3575 -19.20898,6.68945 v -3.4375 c -1e-4,-10.85373 8.35525,-20.36533 19.20898,-20.36523 0.12045,1.9e-4 0.2409,9e-4 0.36133,0.004 v -11.27539 c -0.12044,-0.001 -0.24088,-0.002 -0.36133,-0.002 z m 27.38867,16.56445 v 0.88282 h 0.44336 c -0.14308,-0.29662 -0.29088,-0.59093 -0.44336,-0.88282 z"
         style="fill:#ffffff;fill-opacity:0.996613;stroke:none;stroke-width:3.02281;stroke-miterlimit:4;stroke-dasharray:none"
         id="circle987" />
    </g>
    <g
       style="fill:#ffffff;fill-opacity:0.996613;stroke:none"
       id="g1026"
       transform="translate(-28.365325)">
      <path
         sodipodi:nodetypes="cccccccccccccscc"
         transform="matrix(0.26458333,0,0,0.26458333,28.365325,0)"
         d="m 233.74866,205.09961 v 84.16992 c 0,1.10995 0.063,2.20544 0.17712,3.28516 v 0.0371 h 0.004 c 1.6578,15.51691 14.78898,27.60155 30.74609,27.60156 13.20577,-3.8e-4 14.125,0 14.125,0 -4.03997,-3.28149 -7.26301,-6.90329 -8.70508,-11.26953 0,0 -3.40967,-10e-5 -5.41992,0 -10.85373,1e-4 -19.65245,-8.80057 -19.65234,-19.6543 V 232.2832 c 5.33046,4.39209 12.15677,7.03465 19.60156,7.04688 v -11.27344 c -10.83389,-0.0279 -19.6017,-8.81841 -19.60156,-19.65234 v -3.30469 z"
         style="fill:#ffffff;fill-opacity:0.996613;stroke:none;stroke-width:3.02281;stroke-miterlimit:4;stroke-dasharray:none"
         id="circle1022" />
    </g>
    <g
       transform="translate(-28.365325,-21.39524)"
       id="g1032" />
  </g>
  <text
     id="text1062"
     y="24.433937"
     x="63.144592"
     style="font-style:normal;font-weight:normal;font-size:2.45973px;line-height:1.25;font-family:sans-serif;letter-spacing:-0.342308px;word-spacing:0px;fill:#ffffff;fill-opacity:0.996613;stroke:none;stroke-width:0.0614932"
     xml:space="preserve"><tspan
       dx="0"
       style="font-style:normal;font-variant:normal;font-weight:normal;font-stretch:normal;font-size:5.52409px;font-family:'Proxima Nova';-inkscape-font-specification:'Proxima Nova';fill:#ffffff;fill-opacity:0.996613;stroke:none;stroke-width:0.0614932"
       y="24.433937"
       x="63.144592"
       id="tspan1060"
       sodipodi:role="line">online</tspan></text>
</svg>
