<svg width="512" height="512" enable-background="new 0 0 512 512" version="1.1" viewBox="0 0 512 512" xmlns="http://www.w3.org/2000/svg">
 <path d="m497 421c0 20.678-16.822 37.5-37.5 37.5h-407c-20.678 0-37.5-16.822-37.5-37.5v-240c0-20.678 16.822-37.5 37.5-37.5h75c2.841 0 5.438-1.605 6.708-4.146l32.563-65.125c6.393-12.787 19.245-20.729 33.541-20.729h111.38c14.296 0 27.148 7.943 33.541 20.729l32.563 65.125c1.27 2.541 3.867 4.146 6.708 4.146h75c20.678 0 37.5 16.822 37.5 37.5v240z" style="fill:#e2e2e2"/>
 <path d="m459.5 128.5h-70.365l-30.49-60.979c-8.95-17.901-26.943-29.021-46.957-29.021h-111.38c-20.014 0-38.007 11.121-46.957 29.021l-30.49 60.979h-70.365c-28.949 0-52.5 23.551-52.5 52.5v240c0 28.949 23.551 52.5 52.5 52.5h407c28.949 0 52.5-23.551 52.5-52.5v-240c0-28.949-23.551-52.5-52.5-52.5zm37.5 292.5c0 20.678-16.822 37.5-37.5 37.5h-407c-20.678 0-37.5-16.822-37.5-37.5v-240c0-20.678 16.822-37.5 37.5-37.5h75c2.841 0 5.438-1.605 6.708-4.146l32.563-65.125c6.393-12.787 19.245-20.729 33.541-20.729h111.38c14.296 0 27.148 7.943 33.541 20.729l32.563 65.125c1.27 2.541 3.867 4.146 6.708 4.146h75c20.678 0 37.5 16.822 37.5 37.5v240z" style="fill:#464646"/>
 <path d="m256 428.5c-78.575 0-142.5-63.925-142.5-142.5s63.925-142.5 142.5-142.5 142.5 63.925 142.5 142.5-63.925 142.5-142.5 142.5z" style="fill:#afafaf"/>
 <path d="m256 384.93c-54.549 0-98.927-44.378-98.927-98.927s44.378-98.927 98.927-98.927 98.927 44.378 98.927 98.927-44.378 98.927-98.927 98.927z" style="fill:#868686;stroke-width:.69423"/>
 <path d="m256 128.5c-86.846 0-157.5 70.654-157.5 157.5s70.654 157.5 157.5 157.5 157.5-70.654 157.5-157.5-70.654-157.5-157.5-157.5zm0 300c-78.575 0-142.5-63.925-142.5-142.5s63.925-142.5 142.5-142.5 142.5 63.925 142.5 142.5-63.925 142.5-142.5 142.5z"/>
 <path d="m323.5 286c0-37.22-30.28-67.5-67.5-67.5s-67.5 30.28-67.5 67.5 30.28 67.5 67.5 67.5 67.5-30.28 67.5-67.5zm-120 0c0-28.949 23.551-52.5 52.5-52.5s52.5 23.551 52.5 52.5-23.551 52.5-52.5 52.5-52.5-23.551-52.5-52.5z"/>
 <path d="m256 158.5c-28.605 0-55.641 9.262-78.184 26.785-3.27 2.542-3.86 7.254-1.318 10.524s7.252 3.859 10.524 1.318c19.886-15.457 43.738-23.627 68.978-23.627 62.033 0 112.5 50.467 112.5 112.5s-50.467 112.5-112.5 112.5-112.5-50.467-112.5-112.5c0-25.24 8.17-49.092 23.627-68.978 2.542-3.271 1.952-7.982-1.318-10.524-3.271-2.542-7.982-1.951-10.524 1.318-17.523 22.543-26.785 49.579-26.785 78.184 0 70.304 57.196 127.5 127.5 127.5s127.5-57.196 127.5-127.5-57.196-127.5-127.5-127.5z"/>
 <path d="m256 326.56c-22.366 0-40.562-18.196-40.562-40.562s18.196-40.562 40.562-40.562 40.562 18.196 40.562 40.562-18.196 40.562-40.562 40.562z" style="fill:#4a4a4a;stroke-width:.28464"/>
</svg>
