<?xml version="1.0" encoding="UTF-8" standalone="no"?>
<svg
   xmlns:dc="http://purl.org/dc/elements/1.1/"
   xmlns:cc="http://creativecommons.org/ns#"
   xmlns:rdf="http://www.w3.org/1999/02/22-rdf-syntax-ns#"
   xmlns:svg="http://www.w3.org/2000/svg"
   xmlns="http://www.w3.org/2000/svg"
   xmlns:sodipodi="http://sodipodi.sourceforge.net/DTD/sodipodi-0.dtd"
   xmlns:inkscape="http://www.inkscape.org/namespaces/inkscape"
   id="Capa_1"
   enable-background="new 0 0 512 512"
   height="512"
   viewBox="0 0 512 512"
   width="512"
   version="1.1"
   sodipodi:docname="camara-fotografica.svg"
   inkscape:version="1.0 (9f2f71dc58, 2020-08-02)">
  <metadata
     id="metadata17">
    <rdf:RDF>
      <cc:Work
         rdf:about="">
        <dc:format>image/svg+xml</dc:format>
        <dc:type
           rdf:resource="http://purl.org/dc/dcmitype/StillImage" />
        <dc:title></dc:title>
      </cc:Work>
    </rdf:RDF>
  </metadata>
  <defs
     id="defs15" />
  <sodipodi:namedview
     pagecolor="#ffffff"
     bordercolor="#666666"
     borderopacity="1"
     objecttolerance="10"
     gridtolerance="10"
     guidetolerance="10"
     inkscape:pageopacity="0"
     inkscape:pageshadow="2"
     inkscape:window-width="1856"
     inkscape:window-height="1016"
     id="namedview13"
     showgrid="false"
     inkscape:zoom="0.10620117"
     inkscape:cx="-2103.2505"
     inkscape:cy="1958.7196"
     inkscape:window-x="64"
     inkscape:window-y="27"
     inkscape:window-maximized="1"
     inkscape:current-layer="Capa_1" />
  <g
     id="g10">
    <path
       d="m 497,421 c 0,20.678 -16.822,37.5 -37.5,37.5 H 52.5 C 31.822,458.5 15,441.678 15,421 V 181 c 0,-20.678 16.822,-37.5 37.5,-37.5 h 75 c 2.841,0 5.438,-1.605 6.708,-4.146 L 166.771,74.229 C 173.164,61.442 186.016,53.5 200.312,53.5 h 111.377 c 14.296,0 27.148,7.943 33.541,20.729 l 32.563,65.125 c 1.27,2.541 3.867,4.146 6.708,4.146 h 75 c 20.678,0 37.5,16.822 37.5,37.5 v 240 z"
       id="path848"
       style="fill:#e2e2e2;fill-opacity:1"
       sodipodi:nodetypes="cssssssccssccssscc" />
    <path
       id="path2"
       style="fill:#464646;fill-opacity:1"
       sodipodi:type="inkscape:offset"
       inkscape:radius="0"
       inkscape:original="M 200.3125 38.5 C 180.2985 38.5 162.30547 49.621484 153.35547 67.521484 L 122.86523 128.5 L 52.5 128.5 C 23.551 128.5 0 152.051 0 181 L 0 421 C 0 449.949 23.551 473.5 52.5 473.5 L 459.5 473.5 C 488.449 473.5 512 449.949 512 421 L 512 181 C 512 152.051 488.449 128.5 459.5 128.5 L 389.13477 128.5 L 358.64453 67.521484 C 349.69453 49.620484 331.7015 38.5 311.6875 38.5 L 200.3125 38.5 z M 200.3125 53.5 L 311.68945 53.5 C 325.98545 53.5 338.83747 61.442516 345.23047 74.228516 L 377.79297 139.35352 C 379.06297 141.89452 381.66095 143.5 384.50195 143.5 L 459.50195 143.5 C 480.17995 143.5 497.00195 160.322 497.00195 181 L 497.00195 421 L 497 421 C 497 441.678 480.178 458.5 459.5 458.5 L 52.5 458.5 C 31.822 458.5 15 441.678 15 421 L 15 181 C 15 160.322 31.822 143.5 52.5 143.5 L 127.5 143.5 C 130.341 143.5 132.93703 141.89452 134.20703 139.35352 L 166.77148 74.228516 C 173.16448 61.441516 186.0165 53.5 200.3125 53.5 z "
       d="m 200.3125,38.5 c -20.014,0 -38.00703,11.121484 -46.95703,29.021484 L 122.86523,128.5 H 52.5 C 23.551,128.5 0,152.051 0,181 v 240 c 0,28.949 23.551,52.5 52.5,52.5 h 407 c 28.949,0 52.5,-23.551 52.5,-52.5 V 181 c 0,-28.949 -23.551,-52.5 -52.5,-52.5 H 389.13477 L 358.64453,67.521484 C 349.69453,49.620484 331.7015,38.5 311.6875,38.5 Z m 0,15 h 111.37695 c 14.296,0 27.14802,7.942516 33.54102,20.728516 l 32.5625,65.125004 c 1.27,2.541 3.86798,4.14648 6.70898,4.14648 h 75 c 20.678,0 37.5,16.822 37.5,37.5 V 421 H 497 c 0,20.678 -16.822,37.5 -37.5,37.5 H 52.5 C 31.822,458.5 15,441.678 15,421 V 181 c 0,-20.678 16.822,-37.5 37.5,-37.5 h 75 c 2.841,0 5.43703,-1.60548 6.70703,-4.14648 L 166.77148,74.228516 C 173.16448,61.441516 186.0165,53.5 200.3125,53.5 Z" />
    <path
       d="m 256,428.5 c -78.575,0 -142.5,-63.925 -142.5,-142.5 0,-78.575 63.925,-142.5 142.5,-142.5 78.575,0 142.5,63.925 142.5,142.5 0,78.575 -63.925,142.5 -142.5,142.5 z"
       id="path842"
       sodipodi:nodetypes="sssss"
       style="fill:#afafaf;fill-opacity:1" />
    <path
       d="m 256,384.92716 c -54.54878,0 -98.92716,-44.37838 -98.92716,-98.92716 0,-54.54878 44.37838,-98.92716 98.92716,-98.92716 54.54878,0 98.92716,44.37838 98.92716,98.92716 0,54.54878 -44.37838,98.92716 -98.92716,98.92716 z"
       id="path844"
       sodipodi:nodetypes="sssss"
       style="fill:#868686;fill-opacity:1;stroke-width:0.694226" />
    <path
       d="m256 128.5c-86.846 0-157.5 70.654-157.5 157.5s70.654 157.5 157.5 157.5 157.5-70.654 157.5-157.5-70.654-157.5-157.5-157.5zm0 300c-78.575 0-142.5-63.925-142.5-142.5s63.925-142.5 142.5-142.5 142.5 63.925 142.5 142.5-63.925 142.5-142.5 142.5z"
       id="path4" />
    <path
       d="m323.5 286c0-37.22-30.28-67.5-67.5-67.5s-67.5 30.28-67.5 67.5 30.28 67.5 67.5 67.5 67.5-30.28 67.5-67.5zm-120 0c0-28.949 23.551-52.5 52.5-52.5s52.5 23.551 52.5 52.5-23.551 52.5-52.5 52.5-52.5-23.551-52.5-52.5z"
       id="path6" />
    <path
       d="m256 158.5c-28.605 0-55.641 9.262-78.184 26.785-3.27 2.542-3.86 7.254-1.318 10.524s7.252 3.859 10.524 1.318c19.886-15.457 43.738-23.627 68.978-23.627 62.033 0 112.5 50.467 112.5 112.5s-50.467 112.5-112.5 112.5-112.5-50.467-112.5-112.5c0-25.24 8.17-49.092 23.627-68.978 2.542-3.271 1.952-7.982-1.318-10.524-3.271-2.542-7.982-1.951-10.524 1.318-17.523 22.543-26.785 49.579-26.785 78.184 0 70.304 57.196 127.5 127.5 127.5s127.5-57.196 127.5-127.5-57.196-127.5-127.5-127.5z"
       id="path8" />
    <path
       d="m 256,326.56187 c -22.36595,0 -40.56187,-18.19592 -40.56187,-40.56187 0,-22.36595 18.19592,-40.56187 40.56187,-40.56187 22.36595,0 40.56187,18.19592 40.56187,40.56187 0,22.36595 -18.19592,40.56187 -40.56187,40.56187 z"
       id="path846"
       sodipodi:nodetypes="sssss"
       style="fill:#4a4a4a;fill-opacity:1;stroke-width:0.284645" />
  </g>
</svg>
