<?xml version="1.0" encoding="UTF-8" standalone="no"?>
<svg
   xmlns:dc="http://purl.org/dc/elements/1.1/"
   xmlns:cc="http://creativecommons.org/ns#"
   xmlns:rdf="http://www.w3.org/1999/02/22-rdf-syntax-ns#"
   xmlns:svg="http://www.w3.org/2000/svg"
   xmlns="http://www.w3.org/2000/svg"
   xmlns:sodipodi="http://sodipodi.sourceforge.net/DTD/sodipodi-0.dtd"
   xmlns:inkscape="http://www.inkscape.org/namespaces/inkscape"
   aria-hidden="true"
   focusable="false"
   data-prefix="fas"
   data-icon="user-circle"
   role="img"
   viewBox="0 0 512 512"
   class="svg-inline--fa fa-user-circle fa-w-16 fa-9x"
   version="1.1"
   id="svg4"
   sodipodi:docname="fas-fa-user-circle-mod.svg"
   width="512"
   height="512"
   inkscape:version="1.0 (b51213c273, 2020-08-10)">
  <metadata
     id="metadata10">
    <rdf:RDF>
      <cc:Work
         rdf:about="">
        <dc:format>image/svg+xml</dc:format>
        <dc:type
           rdf:resource="http://purl.org/dc/dcmitype/StillImage" />
        <dc:title />
      </cc:Work>
    </rdf:RDF>
  </metadata>
  <defs
     id="defs8" />
  <sodipodi:namedview
     pagecolor="#ffffff"
     bordercolor="#666666"
     borderopacity="1"
     objecttolerance="10"
     gridtolerance="10"
     guidetolerance="10"
     inkscape:pageopacity="0"
     inkscape:pageshadow="2"
     inkscape:window-width="1856"
     inkscape:window-height="1016"
     id="namedview6"
     showgrid="false"
     fit-margin-top="0"
     fit-margin-left="0"
     fit-margin-right="0"
     fit-margin-bottom="0"
     inkscape:zoom="0.70710678"
     inkscape:cx="196.51271"
     inkscape:cy="187.48089"
     inkscape:window-x="64"
     inkscape:window-y="27"
     inkscape:window-maximized="1"
     inkscape:current-layer="svg4"
     inkscape:document-rotation="0" />
  <circle
     style="fill:#999999;stroke-width:3.10989"
     id="path835"
     cx="256"
     cy="256"
     r="256" />
  <circle
     style="fill:#f2f2f2;stroke-width:2.72065"
     id="circle837"
     cx="256"
     cy="256"
     r="223.95827" />
  <path
     fill="currentColor"
     d="m 255.99999,99.096773 c 50.16775,0 90.83872,40.670967 90.83872,90.838707 0,50.16774 -40.67097,90.83871 -90.83872,90.83871 -50.16773,0 -90.8387,-40.67097 -90.8387,-90.83871 0,-50.16774 40.67097,-90.838707 90.8387,-90.838707 z m 0,355.096777 c -60.59354,0 -114.89032,-27.45807 -151.2258,-70.4 19.40645,-36.54193 57.39355,-61.72903 101.67742,-61.72903 2.47742,0 4.95484,0.4129 7.32903,1.13547 13.41936,4.33549 27.45806,7.12259 42.21935,7.12259 14.7613,0 28.90323,-2.7871 42.21936,-7.12259 2.37419,-0.72257 4.85162,-1.13547 7.32904,-1.13547 44.28386,0 82.27097,25.1871 101.67742,61.72903 -36.33549,42.94193 -90.63226,70.4 -151.22582,70.4 z"
     class=""
     id="path2"
     style="stroke-width:1.03226;fill:#4d4d4d"
     sodipodi:nodetypes="sssssscscscscs" />
</svg>
